<?xml version="1.0" encoding="UTF-8"?><svg id="Layer_2" xmlns="http://www.w3.org/2000/svg" viewBox="0 0 619.04 273.32"><defs><style>.cls-1,.cls-2{fill:#024f96;}.cls-3{fill:#fff;}.cls-2{stroke:#fff;stroke-miterlimit:10;stroke-width:.25px;}</style></defs><g id="Layer_1-2"><path class="cls-3" d="M172.19,177.64h-25.31c2.35,6.2,3.52,13.21,3.52,21.03,0,15.36-5.01,27.98-15.04,37.88-10.03,9.91-24.45,14.86-43.26,14.86s-34.42-5.14-46.05-15.41c-11.64-10.27-18.57-23.71-20.8-40.3H0c2.47,24.76,12.01,43.89,28.6,57.38,16.58,13.49,37.75,20.24,63.5,20.24s47.59-6.75,61.83-20.24c14.23-13.49,21.35-30.88,21.35-52.18,0-8.48-1.03-16.23-3.09-23.26ZM49.21,36.21c11.01-8.79,24.93-13.18,41.77-13.18s30.7,4.39,40.11,13.18c9.4,8.79,14.11,20.37,14.11,34.72,0,9.68-2.18,17.93-6.54,24.75h26.16c3.76-8.25,5.63-17.37,5.63-27.35,0-12.87-3.03-24.44-9.1-34.72-6.07-10.27-15.04-18.38-26.92-24.32C122.55,3.34,108.31.37,91.73.37c-25.01,0-45.37,6.5-61.09,19.5-15.73,13-24.45,30.76-26.18,53.29h25.25c1.98-15.84,8.48-28.16,19.5-36.95Z"/><path class="cls-3" d="M366.89,19.5c-13.61-13-32.3-19.5-56.07-19.5-52.48,0-83.05,31.9-91.73,95.68h22.57c2.59-19.32,7.45-34.5,14.57-45.55,12.13-18.81,30.32-28.22,54.59-28.22,31.94,0,50.62,16.1,56.07,48.28h24.14c-2.48-20.8-10.52-37.69-24.14-50.69ZM400.52,177.64h-25.35c.18,2.6.27,5.28.27,8.04,0,20.05-5.7,35.9-17.09,47.53-11.39,11.64-26.61,17.45-45.67,17.45-22.78,0-40.11-6.68-51.99-20.05-11.89-13.37-17.83-30.08-17.83-50.13,0-.96.02-1.9.05-2.84h-24.02c3.12,24.18,9.32,44.07,18.59,59.66,13.98,23.52,39.42,35.27,76.31,35.27,19.31,0,35.46-3.95,48.46-11.88,13-7.92,22.65-18.5,28.97-31.75,6.31-13.24,9.47-28.04,9.47-44.38,0-2.35-.05-4.66-.17-6.92Z"/><path class="cls-3" d="M616.48,95.68c-3.02-22.74-8.73-41.64-17.12-56.69-13.13-23.51-36.64-35.27-70.56-35.27s-57.44,11.76-70.55,35.27c-8.4,15.05-14.11,33.95-17.13,56.69h25.32c.7-5.71,1.55-11.05,2.57-16.02,3.22-15.72,9.53-28.35,18.94-37.88,9.41-9.53,23.03-14.3,40.85-14.3s31.44,4.77,40.85,14.3c9.41,9.53,15.72,22.16,18.94,37.88,1.02,4.97,1.87,10.31,2.57,16.02,1.5,12.32,2.26,26.35,2.26,42.09,0,14.77-.67,28.06-1.99,39.87-.74,6.61-1.68,12.76-2.84,18.44-3.22,15.84-9.53,28.53-18.94,38.06-9.41,9.53-23.02,14.3-40.85,14.3s-31.44-4.77-40.85-14.3c-9.41-9.53-15.72-22.22-18.94-38.06-1.16-5.68-2.1-11.83-2.84-18.44h-25.36c2.93,23.95,8.74,43.71,17.44,59.28,13.11,23.53,36.63,35.28,70.55,35.28s57.43-11.82,70.56-35.46c8.67-15.62,14.47-35.32,17.41-59.1,1.51-12.21,2.27-25.5,2.27-39.87,0-15.25-.85-29.28-2.56-42.09Z"/><path class="cls-1" d="M172.19,177.64h-25.31c-8.93-23.6-34.87-35.41-77.81-35.41h-8.17v-21.91h8.54c35.67,0,58.75-8.21,69.22-24.64h26.16c-2.11,4.65-4.81,9.03-8.11,13.13-9.16,11.39-22.16,18.44-38.99,21.17v1.85c17.58,3.47,31.57,11.09,41.96,22.84,5.78,6.53,9.95,14.19,12.51,22.97Z"/><path class="cls-2" d="M400.52,177.64h-25.35c-1.25-17.73-6.74-31.88-16.45-42.47-11.14-12.12-26.98-18.19-47.53-18.19-11.64,0-22.65,2.35-33.05,7.05-10.4,4.71-18.88,11.83-25.44,21.36-6.11,8.87-9.37,19.62-9.79,32.25h-24.02c-1.59-12.3-2.39-25.72-2.39-40.24s.86-29.07,2.59-41.72h22.57c-1.84,13.59-2.55,29.23-2.14,46.92,4.95-14.85,14.42-26.55,28.41-35.09,10.11-6.18,21.3-10.12,33.55-11.83,4.69-.65,9.54-.98,14.54-.98s10.26.32,15.06.98c19.02,2.56,34.61,10.22,46.77,22.97,13.94,14.63,21.51,34.29,22.67,58.99Z"/><path class="cls-1" d="M464.19,137.77c0,14.77.66,28.06,1.98,39.87h-25.36c-1.5-12.2-2.25-25.5-2.25-39.87,0-15.25.85-29.28,2.56-42.09h25.32c-1.5,12.32-2.25,26.35-2.25,42.09Z"/><path class="cls-1" d="M619.04,137.77c0,14.37-.76,27.66-2.27,39.87h-25.34c1.32-11.81,1.99-25.1,1.99-39.87,0-15.74-.76-29.77-2.26-42.09h25.32c1.71,12.81,2.56,26.84,2.56,42.09Z"/><path class="cls-3" d="M6.95,110.24v52.92H.04v-52.92h6.91Z"/><path class="cls-3" d="M102.15,163.15h-6.91l-27.79-42.13v42.13h-6.91v-52.99h6.91l27.79,42.06v-42.06h6.91v52.99Z"/><path class="cls-3" d="M188.32,110.24v5.39h-14.43v47.53h-6.91v-47.53h-14.5v-5.39h35.83Z"/><path class="cls-3" d="M245.56,115.63v18.14h19.28v5.31h-19.28v18.6h21.56v5.47h-28.47v-52.99h28.47v5.47h-21.56Z"/><path class="cls-3" d="M347.29,163.15l-12.6-21.64h-8.35v21.64h-6.91v-52.92h17.08c4,0,7.38.68,10.13,2.05,2.76,1.37,4.82,3.21,6.19,5.54s2.05,4.99,2.05,7.97c0,3.64-1.05,6.86-3.15,9.64-2.1,2.78-5.25,4.63-9.45,5.54l13.29,22.17h-8.28ZM326.34,135.98h10.17c3.75,0,6.55-.92,8.43-2.77,1.87-1.85,2.81-4.31,2.81-7.4s-.91-5.67-2.73-7.44c-1.82-1.77-4.66-2.66-8.5-2.66h-10.17v20.27Z"/><path class="cls-3" d="M410.68,110.24l16.47,45.48,16.63-45.48h7.36l-19.97,52.92h-7.97l-19.97-52.92h7.44Z"/><path class="cls-3" d="M531.85,151.39h-23.08l-4.25,11.77h-7.29l19.13-52.61h7.97l19.06,52.61h-7.29l-4.25-11.77ZM529.95,146l-9.64-26.95-9.64,26.95h19.28Z"/><path class="cls-3" d="M600.48,157.84h18.52v5.31h-25.43v-52.92h6.91v47.6Z"/></g></svg>