<?xml version="1.0" encoding="UTF-8"?><svg id="Layer_1" xmlns="http://www.w3.org/2000/svg" viewBox="0 0 500 500"><defs><style>.cls-1{fill:#024f96;}.cls-2{fill:#d4d4d4;}.cls-3{fill:#fff;}</style></defs><rect class="cls-3" width="500" height="500" rx="90.59" ry="90.59"/><g id="Layer_1-2"><path d="M149.06,280.12h-18.6c1.73,4.56,2.59,9.71,2.59,15.46,0,11.29-3.68,20.57-11.05,27.84-7.37,7.28-17.97,10.92-31.8,10.92s-25.3-3.78-33.85-11.33c-8.56-7.55-13.65-17.43-15.29-29.62h-18.56c1.82,18.2,8.83,32.26,21.02,42.18,12.19,9.92,27.75,14.88,46.67,14.88s34.98-4.96,45.45-14.88c10.46-9.92,15.69-22.7,15.69-38.35,0-6.23-.76-11.93-2.27-17.1ZM58.67,176.17c8.09-6.46,18.32-9.69,30.7-9.69s22.57,3.23,29.48,9.69c6.91,6.46,10.37,14.97,10.37,25.52,0,7.12-1.6,13.18-4.81,18.19h19.23c2.76-6.06,4.14-12.77,4.14-20.1,0-9.46-2.23-17.96-6.69-25.52-4.46-7.55-11.05-13.51-19.79-17.88-8.73-4.37-19.2-6.56-31.39-6.56-18.38,0-33.35,4.78-44.9,14.33-11.56,9.56-17.97,22.61-19.24,39.17h18.56c1.46-11.64,6.23-20.7,14.33-27.16Z"/><path d="M292.17,163.88c-10-9.56-23.74-14.33-41.21-14.33-38.57,0-61.04,23.45-67.42,70.33h16.59c1.9-14.2,5.48-25.36,10.71-33.48,8.92-13.83,22.29-20.74,40.12-20.74,23.48,0,37.21,11.83,41.21,35.49h17.74c-1.82-15.29-7.73-27.7-17.74-37.26ZM316.89,280.12h-18.63c.13,1.91.2,3.88.2,5.91,0,14.74-4.19,26.39-12.56,34.94-8.37,8.56-19.56,12.83-33.57,12.83-16.74,0-29.48-4.91-38.21-14.74-8.74-9.83-13.11-22.11-13.11-36.85,0-.71.01-1.4.04-2.09h-17.66c2.29,17.77,6.85,32.39,13.66,43.85,10.28,17.29,28.97,25.92,56.09,25.92,14.19,0,26.06-2.9,35.62-8.73,9.56-5.82,16.65-13.6,21.29-23.34,4.64-9.73,6.96-20.61,6.96-32.62,0-1.73-.04-3.43-.12-5.09h0Z"/><path d="M475.62,219.88c-2.22-16.71-6.42-30.61-12.58-41.67-9.65-17.28-26.93-25.92-51.86-25.92s-42.22,8.64-51.86,25.92c-6.17,11.06-10.37,24.95-12.59,41.67h18.61c.51-4.2,1.14-8.12,1.89-11.78,2.37-11.55,7-20.84,13.92-27.84,6.92-7,16.93-10.51,30.03-10.51s23.11,3.51,30.03,10.51c6.92,7,11.55,16.29,13.92,27.84.75,3.65,1.37,7.58,1.89,11.78,1.1,9.06,1.66,19.37,1.66,30.94,0,10.86-.49,20.62-1.46,29.31-.54,4.86-1.23,9.38-2.09,13.55-2.37,11.64-7,20.97-13.92,27.97-6.92,7-16.92,10.51-30.03,10.51s-23.11-3.51-30.03-10.51-11.55-16.33-13.92-27.97c-.85-4.17-1.54-8.7-2.09-13.55h-18.64c2.15,17.6,6.42,32.13,12.82,43.57,9.64,17.3,26.92,25.93,51.86,25.93s42.21-8.69,51.86-26.06c6.37-11.48,10.64-25.96,12.8-43.44,1.11-8.97,1.67-18.74,1.67-29.31,0-11.21-.62-21.52-1.88-30.94h0Z"/><path class="cls-2" d="M149.06,280.12h-18.6c-6.56-17.35-25.63-26.03-57.19-26.03h-6.01v-16.1h6.28c26.22,0,43.18-6.03,50.88-18.11h19.23c-1.55,3.42-3.54,6.64-5.96,9.65-6.73,8.37-16.29,13.55-28.66,15.56v1.36c12.92,2.55,23.2,8.15,30.84,16.79,4.25,4.8,7.31,10.43,9.2,16.88h0Z"/><path class="cls-2" d="M316.89,280.12h-18.63c-.92-13.03-4.95-23.43-12.09-31.22-8.19-8.91-19.83-13.37-34.94-13.37-8.56,0-16.65,1.73-24.29,5.18-7.64,3.46-13.88,8.7-18.7,15.7-4.49,6.52-6.89,14.42-7.2,23.7h-17.66c-1.17-9.04-1.76-18.9-1.76-29.58s.63-21.37,1.9-30.67h16.59c-1.35,9.99-1.87,21.48-1.57,34.49,3.64-10.92,10.6-19.51,20.88-25.79,7.43-4.54,15.66-7.44,24.66-8.7,3.45-.48,7.01-.72,10.69-.72s7.54.24,11.07.72c13.98,1.88,25.44,7.51,34.38,16.88,10.25,10.75,15.81,25.2,16.66,43.36h0Z"/><path class="cls-2" d="M363.69,250.82c0,10.86.49,20.62,1.46,29.31h-18.64c-1.1-8.97-1.65-18.74-1.65-29.31,0-11.21.62-21.52,1.88-30.94h18.61c-1.1,9.06-1.65,19.37-1.65,30.94Z"/><path class="cls-2" d="M477.5,250.82c0,10.56-.56,20.33-1.67,29.31h-18.63c.97-8.68,1.46-18.45,1.46-29.31,0-11.57-.56-21.88-1.66-30.94h18.61c1.26,9.42,1.88,19.73,1.88,30.94h0Z"/><path class="cls-1" d="M27.6,230.58v38.9h-5.08v-38.9s5.08,0,5.08,0Z"/><path class="cls-1" d="M97.58,269.47h-5.08l-20.43-30.97v30.97h-5.08v-38.95h5.08l20.43,30.92v-30.92h5.08s0,38.95,0,38.95Z"/><path class="cls-1" d="M160.92,230.58v3.96h-10.61v34.94h-5.08v-34.94h-10.66v-3.96h26.34Z"/><path class="cls-1" d="M202.99,234.54v13.33h14.17v3.9h-14.17v13.67h15.85v4.02h-20.93v-38.95h20.93v4.02s-15.85,0-15.85,0Z"/><path class="cls-1" d="M277.76,269.47l-9.26-15.91h-6.14v15.91h-5.08v-38.9h12.55c2.94,0,5.42.5,7.45,1.51,2.03,1.01,3.54,2.36,4.55,4.07s1.51,3.67,1.51,5.86c0,2.68-.77,5.04-2.32,7.09-1.54,2.04-3.86,3.4-6.95,4.07l9.77,16.3h-6.09,0ZM262.36,249.5h7.48c2.76,0,4.81-.68,6.2-2.04,1.37-1.36,2.07-3.17,2.07-5.44s-.67-4.17-2.01-5.47c-1.34-1.3-3.43-1.96-6.25-1.96h-7.48v14.9h0Z"/><path class="cls-1" d="M324.35,230.58l12.11,33.43,12.22-33.43h5.41l-14.68,38.9h-5.86l-14.68-38.9h5.48Z"/><path class="cls-1" d="M413.42,260.83h-16.96l-3.12,8.65h-5.36l14.06-38.67h5.86l14.01,38.67h-5.36l-3.12-8.65ZM412.02,256.87l-7.09-19.81-7.09,19.81h14.17Z"/><path class="cls-1" d="M463.86,265.57h13.61v3.9h-18.69v-38.9h5.08v34.99h0Z"/></g></svg>